# xmcd
#
# Track frame offsets: 
#        150
#        14258
#        30707
#        48511
#        66038
#        86944
#        100892
#        114678
#        127630
#        144144
#        158111
#        173752
#        187343
#        206619
#        222666
#        242384
#
# Disc length: 3455 seconds
#
# Revision: 0
# Processed by: cddbd v1.5.2PL0 Copyright (c) Steve Scherf et al.
# Submitted via: ExactAudioCopy v0.99pb5
#
DISCID=de0d7d10
DTITLE=The Little Brothers - Mama's Angel Child
DYEAR=2011
DGENRE=Blues
TTITLE0=01. Loose Like That
TTITLE1=02. New Bumble Bee
TTITLE2=03. Crow Jane
TTITLE3=04. Mama's Angel Child
TTITLE4=05. What Fault You Find of Me
TTITLE5=06. Farewell Daddy
TTITLE6=07. Cabo Verdranos Peca Nove
TTITLE7=08. Bad Luck Blues
TTITLE8=09. The Girl I Love Got Long Curly Hair
TTITLE9=10. Wayward Girl
TTITLE10=11. Leake County Blues
TTITLE11=12. Cold Penitentiary Blues
TTITLE12=13. Viola Lee Blues
TTITLE13=14. Grind So Fine
TTITLE14=15. Black Mattie
TTITLE15=16. Mother's Prayer
EXTD=
EXTT0=
EXTT1=
EXTT2=
EXTT3=
EXTT4=
EXTT5=
EXTT6=
EXTT7=
EXTT8=
EXTT9=
EXTT10=
EXTT11=
EXTT12=
EXTT13=
EXTT14=
EXTT15=
PLAYORDER=
